<svg id="svg" class="path" style="background-color: rgb(11, 71, 51)">
  <path
    fill="#075138"
    stroke="#075138"
    d="M -300 1054 L -300 0 C -243.0769230769231 0, -208.9230769230769 -21, -152 -21 C -95.07692307692308 -21, -60.92307692307692 21, -4 21 C 52.92307692307692 21, 87.07692307692308 -21, 144 -21 C 200.9230769230769 -21, 235.0769230769231 21, 292 21 C 348.9230769230769 21, 383.0769230769231 -21, 440 -21 C 496.9230769230769 -21, 531.0769230769231 21, 588 21 C 644.9230769230769 21, 679.0769230769231 -21, 736 -21 L 911 0 L 911 1054 Z"
  ></path>
  <path
    fill="#035b3e"
    stroke="#035b3e"
    d="M -300 1054 L -280 50 C -223.0769230769231 50, -188.9230769230769 29, -132 29 C -75.07692307692308 29, -40.92307692307692 71, 16 71 C 72.92307692307692 71, 107.07692307692308 29, 164 29 C 220.9230769230769 29, 255.0769230769231 71, 312 71 C 368.9230769230769 71, 403.0769230769231 29, 460 29 C 516.9230769230769 29, 551.0769230769231 71, 608 71 C 664.9230769230769 71, 699.0769230769231 29, 756 29 L 911 50 L 911 1054 Z"
  ></path>
  <path
    fill="#006543"
    stroke="#006543"
    d="M -300 1054 L -260 100 C -203.0769230769231 100, -168.9230769230769 79, -112 79 C -55.07692307692308 79, -20.92307692307692 121, 36 121 C 92.92307692307692 121, 127.07692307692308 79, 184 79 C 240.9230769230769 79, 275.0769230769231 121, 332 121 C 388.9230769230769 121, 423.0769230769231 79, 480 79 C 536.9230769230769 79, 571.0769230769231 121, 628 121 L 911 100 L 911 1054 Z"
  ></path>
  <path
    fill="#007048"
    stroke="#007048"
    d="M -300 1054 L -240 150 C -183.0769230769231 150, -148.9230769230769 129, -92 129 C -35.07692307692308 129, -0.9230769230769198 171, 56 171 C 112.92307692307692 171, 147.0769230769231 129, 204 129 C 260.9230769230769 129, 295.0769230769231 171, 352 171 C 408.9230769230769 171, 443.0769230769231 129, 500 129 C 556.9230769230769 129, 591.0769230769231 171, 648 171 L 911 150 L 911 1054 Z"
  ></path>
  <path
    fill="#007a4c"
    stroke="#007a4c"
    d="M -300 1054 L -220 201 C -163.0769230769231 201, -128.9230769230769 180, -72 180 C -15.07692307692308 180, 19.07692307692308 222, 76 222 C 132.9230769230769 222, 167.0769230769231 180, 224 180 C 280.9230769230769 180, 315.0769230769231 222, 372 222 C 428.9230769230769 222, 463.0769230769231 180, 520 180 C 576.9230769230769 180, 611.0769230769231 222, 668 222 L 911 201 L 911 1054 Z"
  ></path>
  <path
    fill="#008551"
    stroke="#008551"
    d="M -300 1054 L -200 251 C -143.0769230769231 251, -108.92307692307692 230, -52 230 C 4.92307692307692 230, 39.07692307692308 272, 96 272 C 152.9230769230769 272, 187.0769230769231 230, 244 230 C 300.9230769230769 230, 335.0769230769231 272, 392 272 C 448.9230769230769 272, 483.0769230769231 230, 540 230 C 596.9230769230769 230, 631.0769230769231 272, 688 272 L 911 251 L 911 1054 Z"
  ></path>
  <path
    fill="#009055"
    stroke="#009055"
    d="M -300 1054 L -180 301 C -123.07692307692308 301, -88.92307692307692 280, -32 280 C 24.92307692307692 280, 59.07692307692308 322, 116 322 C 172.9230769230769 322, 207.0769230769231 280, 264 280 C 320.9230769230769 280, 355.0769230769231 322, 412 322 C 468.9230769230769 322, 503.0769230769231 280, 560 280 C 616.9230769230769 280, 651.0769230769231 322, 708 322 L 911 301 L 911 1054 Z"
  ></path>
  <path
    fill="#009b59"
    stroke="#009b59"
    d="M -300 1054 L -160 351 C -103.07692307692308 351, -68.92307692307692 330, -12 330 C 44.92307692307692 330, 79.07692307692308 372, 136 372 C 192.9230769230769 372, 227.0769230769231 330, 284 330 C 340.9230769230769 330, 375.0769230769231 372, 432 372 C 488.9230769230769 372, 523.0769230769231 330, 580 330 C 636.9230769230769 330, 671.0769230769231 372, 728 372 L 911 351 L 911 1054 Z"
  ></path>
  <path
    fill="#00a65c"
    stroke="#00a65c"
    d="M -300 1054 L -140 402 C -83.07692307692308 402, -48.92307692307692 381, 8 381 C 64.92307692307692 381, 99.07692307692308 423, 156 423 C 212.9230769230769 423, 247.0769230769231 381, 304 381 C 360.9230769230769 381, 395.0769230769231 423, 452 423 C 508.9230769230769 423, 543.0769230769231 381, 600 381 C 656.9230769230769 381, 691.0769230769231 423, 748 423 L 911 402 L 911 1054 Z"
  ></path>
  <path
    fill="#06b160"
    stroke="#06b160"
    d="M -300 1054 L -120 452 C -63.07692307692308 452, -28.92307692307692 431, 28 431 C 84.92307692307692 431, 119.07692307692308 473, 176 473 C 232.9230769230769 473, 267.0769230769231 431, 324 431 C 380.9230769230769 431, 415.0769230769231 473, 472 473 C 528.9230769230769 473, 563.0769230769231 431, 620 431 L 911 452 L 911 1054 Z"
  ></path>
  <path
    fill="#12bc63"
    stroke="#12bc63"
    d="M -300 1054 L -100 502 C -43.07692307692308 502, -8.92307692307692 481, 48 481 C 104.92307692307692 481, 139.0769230769231 523, 196 523 C 252.9230769230769 523, 287.0769230769231 481, 344 481 C 400.9230769230769 481, 435.0769230769231 523, 492 523 C 548.9230769230769 523, 583.0769230769231 481, 640 481 L 911 502 L 911 1054 Z"
  ></path>
  <path
    fill="#1dc765"
    stroke="#1dc765"
    d="M -300 1054 L -80 552 C -23.07692307692308 552, 11.07692307692308 531, 68 531 C 124.92307692307692 531, 159.0769230769231 573, 216 573 C 272.9230769230769 573, 307.0769230769231 531, 364 531 C 420.9230769230769 531, 455.0769230769231 573, 512 573 C 568.9230769230769 573, 603.0769230769231 531, 660 531 L 911 552 L 911 1054 Z"
  ></path>
  <path
    fill="#27d368"
    stroke="#27d368"
    d="M -300 1054 L -60 603 C -3.07692307692308 603, 31.07692307692308 582, 88 582 C 144.9230769230769 582, 179.0769230769231 624, 236 624 C 292.9230769230769 624, 327.0769230769231 582, 384 582 C 440.9230769230769 582, 475.0769230769231 624, 532 624 C 588.9230769230769 624, 623.0769230769231 582, 680 582 L 911 603 L 911 1054 Z"
  ></path>
  <path
    fill="#32de6a"
    stroke="#32de6a"
    d="M -300 1054 L -40 653 C 16.92307692307692 653, 51.07692307692308 632, 108 632 C 164.9230769230769 632, 199.0769230769231 674, 256 674 C 312.9230769230769 674, 347.0769230769231 632, 404 632 C 460.9230769230769 632, 495.0769230769231 674, 552 674 C 608.9230769230769 674, 643.0769230769231 632, 700 632 L 911 653 L 911 1054 Z"
  ></path>
  <path
    fill="#3ce96c"
    stroke="#3ce96c"
    d="M -300 1054 L -20 703 C 36.92307692307692 703, 71.07692307692308 682, 128 682 C 184.9230769230769 682, 219.0769230769231 724, 276 724 C 332.9230769230769 724, 367.0769230769231 682, 424 682 C 480.9230769230769 682, 515.0769230769231 724, 572 724 C 628.9230769230769 724, 663.0769230769231 682, 720 682 L 911 703 L 911 1054 Z"
  ></path>
  <path
    fill="#47f56d"
    stroke="#47f56d"
    d="M -300 1054 L 0 754 C 56.92307692307692 754, 91.07692307692308 733, 148 733 C 204.9230769230769 733, 239.0769230769231 775, 296 775 C 352.9230769230769 775, 387.0769230769231 733, 444 733 C 500.9230769230769 733, 535.0769230769231 775, 592 775 C 648.9230769230769 775, 683.0769230769231 733, 740 733 L 911 754 L 911 1054 Z"
  ></path>
</svg>
